<svg xmlns="http://www.w3.org/2000/svg" width="952" height="492" viewBox="0 0 283.5 146.49" shape-rendering="geometricPrecision" text-rendering="geometricPrecision" image-rendering="optimizeQuality" fill-rule="evenodd" clip-rule="evenodd"><defs><style>.fil0,.fil1{fill:#70c217;fill-rule:nonzero}.fil1{fill:#ef4358}</style></defs><g id="Слой_x0020_1"><circle class="fil0" transform="rotate(90 21.998 109.499) scale(.30146)" r="3.28"/><circle class="fil0" transform="rotate(90 14.747 116.749) scale(.30146)" r="3.28"/><circle class="fil0" transform="rotate(90 7.497 124) scale(.30146)" r="3.28"/><circle class="fil0" transform="rotate(90 .247 131.25) scale(.30146)" r="3.28"/><circle class="fil0" transform="rotate(90 -7.004 138.5) scale(.30146)" r="3.28"/><circle class="fil0" transform="rotate(90 14.748 102.248) scale(.30146)" r="3.28"/><circle class="fil0" transform="rotate(90 7.497 109.499) scale(.30146)" r="3.28"/><circle class="fil0" transform="rotate(90 .246 116.749) scale(.30146)" r="3.28"/><circle class="fil0" transform="rotate(90 -7.004 123.999) scale(.30146)" r="3.28"/><circle class="fil0" transform="rotate(90 -14.254 131.25) scale(.30146)" r="3.28"/><circle class="fil0" transform="rotate(90 7.497 94.997) scale(.30146)" r="3.28"/><circle class="fil0" transform="rotate(90 .246 102.248) scale(.30146)" r="3.28"/><circle class="fil0" transform="rotate(90 -7.005 109.499) scale(.30146)" r="3.28"/><circle class="fil0" transform="rotate(90 -14.254 116.748) scale(.30146)" r="3.28"/><circle class="fil0" transform="rotate(90 -21.505 123.999) scale(.30146)" r="3.28"/><circle class="fil0" transform="rotate(90 .246 87.746) scale(.30146)" r="3.28"/><circle class="fil0" transform="rotate(90 -7.005 94.998) scale(.30146)" r="3.28"/><circle class="fil0" transform="rotate(90 -14.255 102.248) scale(.30146)" r="3.28"/><circle class="fil0" transform="rotate(90 -21.505 109.498) scale(.30146)" r="3.28"/><circle class="fil0" transform="rotate(90 -28.755 116.748) scale(.30146)" r="3.28"/><circle class="fil0" transform="rotate(90 -7.004 80.496) scale(.30146)" r="3.28"/><circle class="fil0" transform="rotate(90 -14.255 87.748) scale(.30146)" r="3.28"/><circle class="fil0" transform="rotate(90 -21.505 94.998) scale(.30146)" r="3.28"/><circle class="fil0" transform="rotate(90 -28.755 102.248) scale(.30146)" r="3.28"/><circle class="fil0" transform="rotate(90 -36.005 109.498) scale(.30146)" r="3.28"/><circle class="fil0" transform="matrix(0 .30146 -.30146 0 58.992 87.5)" r="3.28"/><circle class="fil0" transform="rotate(90 -21.505 80.497) scale(.30146)" r="3.28"/><circle class="fil0" transform="rotate(90 -28.756 87.748) scale(.30146)" r="3.28"/><circle class="fil0" transform="rotate(90 -36.005 94.997) scale(.30146)" r="3.28"/><circle class="fil0" transform="rotate(90 -43.256 102.248) scale(.30146)" r="3.28"/><circle class="fil0" transform="matrix(0 .30146 -.30146 0 44.491 87.5)" r="3.28"/><circle class="fil0" transform="rotate(90 -28.755 73.246) scale(.30146)" r="3.28"/><circle class="fil0" transform="rotate(90 -36.006 80.497) scale(.30146)" r="3.28"/><circle class="fil0" transform="rotate(90 -43.256 87.747) scale(.30146)" r="3.28"/><circle class="fil0" transform="rotate(90 -50.506 94.998) scale(.30146)" r="3.28"/><circle class="fil0" transform="matrix(0 .30146 -.30146 0 29.99 87.5)" r="3.28"/><circle class="fil0" transform="rotate(90 -36.006 65.996) scale(.30146)" r="3.28"/><circle class="fil0" transform="rotate(90 -43.256 73.246) scale(.30146)" r="3.28"/><circle class="fil0" transform="rotate(90 -50.506 80.496) scale(.30146)" r="3.28"/><circle class="fil0" transform="rotate(90 -57.757 87.747) scale(.30146)" r="3.28"/><circle class="fil0" transform="matrix(0 .30146 -.30146 0 15.49 87.5)" r="3.28"/><circle class="fil0" transform="rotate(90 -43.256 58.746) scale(.30146)" r="3.28"/><circle class="fil0" transform="rotate(90 -50.507 65.996) scale(.30146)" r="3.28"/><circle class="fil0" transform="rotate(90 -57.756 73.246) scale(.30146)" r="3.28"/><circle class="fil0" transform="rotate(90 -65.007 80.497) scale(.30146)" r="3.28"/><circle class="fil0" transform="matrix(0 .30146 -.30146 0 .989 87.5)" r="3.28"/><circle class="fil0" transform="rotate(90 -50.506 51.495) scale(.30146)" r="3.28"/><circle class="fil0" transform="rotate(90 -57.757 58.746) scale(.30146)" r="3.28"/><circle class="fil0" transform="rotate(90 -65.007 65.996) scale(.30146)" r="3.28"/><circle class="fil0" transform="rotate(90 -72.257 73.246) scale(.30146)" r="3.28"/><g id="Group_x0020_6.svg"><circle class="fil1" transform="matrix(0 .28774 -.28774 0 282.559 .944)" r="3.28"/><circle class="fil1" transform="rotate(90 133.887 148.672) scale(.28774)" r="3.28"/><circle class="fil1" transform="rotate(90 126.966 155.592) scale(.28774)" r="3.28"/><circle class="fil1" transform="rotate(90 120.046 162.512) scale(.28774)" r="3.28"/><circle class="fil1" transform="rotate(90 113.126 169.433) scale(.28774)" r="3.28"/><circle class="fil1" transform="rotate(90 133.887 134.83) scale(.28774)" r="3.28"/><circle class="fil1" transform="rotate(90 126.966 141.751) scale(.28774)" r="3.28"/><circle class="fil1" transform="rotate(90 120.046 148.672) scale(.28774)" r="3.28"/><circle class="fil1" transform="rotate(90 113.126 155.592) scale(.28774)" r="3.28"/><circle class="fil1" transform="rotate(90 106.205 162.512) scale(.28774)" r="3.28"/><circle class="fil1" transform="rotate(90 126.966 127.91) scale(.28774)" r="3.28"/><circle class="fil1" transform="rotate(90 120.046 134.83) scale(.28774)" r="3.28"/><circle class="fil1" transform="rotate(90 113.125 141.751) scale(.28774)" r="3.28"/><circle class="fil1" transform="rotate(90 106.205 148.671) scale(.28774)" r="3.28"/><circle class="fil1" transform="rotate(90 99.285 155.592) scale(.28774)" r="3.28"/><circle class="fil1" transform="rotate(90 120.046 120.99) scale(.28774)" r="3.28"/><circle class="fil1" transform="rotate(90 113.125 127.91) scale(.28774)" r="3.28"/><circle class="fil1" transform="rotate(90 106.205 134.83) scale(.28774)" r="3.28"/><circle class="fil1" transform="rotate(90 99.285 141.75) scale(.28774)" r="3.28"/><circle class="fil1" transform="rotate(90 92.364 148.671) scale(.28774)" r="3.28"/><circle class="fil1" transform="rotate(90 113.126 114.07) scale(.28774)" r="3.28"/><circle class="fil1" transform="rotate(90 106.205 120.99) scale(.28774)" r="3.28"/><circle class="fil1" transform="rotate(90 99.285 127.91) scale(.28774)" r="3.28"/><circle class="fil1" transform="rotate(90 92.365 134.83) scale(.28774)" r="3.28"/><circle class="fil1" transform="rotate(90 85.444 141.751) scale(.28774)" r="3.28"/><circle class="fil1" transform="rotate(90 106.205 107.15) scale(.28774)" r="3.28"/><circle class="fil1" transform="rotate(90 99.285 114.07) scale(.28774)" r="3.28"/><circle class="fil1" transform="rotate(90 92.365 120.99) scale(.28774)" r="3.28"/><circle class="fil1" transform="rotate(90 85.444 127.91) scale(.28774)" r="3.28"/><circle class="fil1" transform="rotate(90 78.524 134.83) scale(.28774)" r="3.28"/><circle class="fil1" transform="rotate(90 99.285 100.229) scale(.28774)" r="3.28"/><circle class="fil1" transform="rotate(90 92.364 107.15) scale(.28774)" r="3.28"/><circle class="fil1" transform="rotate(90 85.444 114.07) scale(.28774)" r="3.28"/><circle class="fil1" transform="rotate(90 78.524 120.99) scale(.28774)" r="3.28"/><circle class="fil1" transform="rotate(90 71.603 127.91) scale(.28774)" r="3.28"/><circle class="fil1" transform="rotate(90 92.364 93.308) scale(.28774)" r="3.28"/><circle class="fil1" transform="rotate(90 85.444 100.229) scale(.28774)" r="3.28"/><circle class="fil1" transform="rotate(90 78.524 107.15) scale(.28774)" r="3.28"/><circle class="fil1" transform="rotate(90 71.603 114.07) scale(.28774)" r="3.28"/><circle class="fil1" transform="rotate(90 64.683 120.99) scale(.28774)" r="3.28"/><circle class="fil1" transform="rotate(90 85.444 86.388) scale(.28774)" r="3.28"/><circle class="fil1" transform="rotate(90 78.524 93.309) scale(.28774)" r="3.28"/><circle class="fil1" transform="rotate(90 71.604 100.23) scale(.28774)" r="3.28"/><circle class="fil1" transform="rotate(90 64.683 107.15) scale(.28774)" r="3.28"/><circle class="fil1" transform="rotate(90 57.763 114.07) scale(.28774)" r="3.28"/><circle class="fil1" transform="rotate(90 78.524 79.468) scale(.28774)" r="3.28"/><circle class="fil1" transform="rotate(90 71.603 86.388) scale(.28774)" r="3.28"/><circle class="fil1" transform="rotate(90 64.683 93.309) scale(.28774)" r="3.28"/><circle class="fil1" transform="rotate(90 57.763 100.229) scale(.28774)" r="3.28"/><circle class="fil1" transform="rotate(90 50.842 107.15) scale(.28774)" r="3.28"/></g></g></svg>