<svg width="473" height="214" fill="none" xmlns="http://www.w3.org/2000/svg"><circle cx="469.439" cy="3.722" r="3.524" transform="rotate(90 469.439 3.722)" fill="#70C217"/><circle cx="469.439" cy="55.401" r="3.524" transform="rotate(90 469.439 55.4)" fill="#70C217"/><circle cx="469.439" cy="107.08" r="3.524" transform="rotate(90 469.439 107.08)" fill="#70C217"/><circle cx="469.439" cy="158.759" r="3.524" transform="rotate(90 469.439 158.759)" fill="#70C217"/><circle cx="469.439" cy="210.438" r="3.524" transform="rotate(90 469.439 210.438)" fill="#70C217"/><circle cx="417.76" cy="3.722" r="3.524" transform="rotate(90 417.76 3.722)" fill="#70C217"/><circle cx="417.76" cy="55.401" r="3.524" transform="rotate(90 417.76 55.4)" fill="#70C217"/><circle cx="417.76" cy="107.08" r="3.524" transform="rotate(90 417.76 107.08)" fill="#70C217"/><circle cx="417.76" cy="158.759" r="3.524" transform="rotate(90 417.76 158.759)" fill="#70C217"/><circle cx="417.76" cy="210.438" r="3.524" transform="rotate(90 417.76 210.438)" fill="#70C217"/><circle cx="366.08" cy="3.722" r="3.524" transform="rotate(90 366.08 3.722)" fill="#70C217"/><circle cx="366.08" cy="55.401" r="3.524" transform="rotate(90 366.08 55.4)" fill="#70C217"/><circle cx="366.08" cy="107.08" r="3.524" transform="rotate(90 366.08 107.08)" fill="#70C217"/><circle cx="366.08" cy="158.759" r="3.524" transform="rotate(90 366.08 158.759)" fill="#70C217"/><circle cx="366.08" cy="210.438" r="3.524" transform="rotate(90 366.08 210.438)" fill="#70C217"/><circle cx="314.401" cy="3.722" r="3.524" transform="rotate(90 314.401 3.722)" fill="#70C217"/><circle cx="314.401" cy="55.401" r="3.524" transform="rotate(90 314.401 55.4)" fill="#70C217"/><circle cx="314.401" cy="107.08" r="3.524" transform="rotate(90 314.401 107.08)" fill="#70C217"/><circle cx="314.401" cy="158.759" r="3.524" transform="rotate(90 314.401 158.759)" fill="#70C217"/><circle cx="314.401" cy="210.438" r="3.524" transform="rotate(90 314.401 210.438)" fill="#70C217"/><circle cx="262.722" cy="3.722" r="3.524" transform="rotate(90 262.722 3.722)" fill="#70C217"/><circle cx="262.722" cy="55.401" r="3.524" transform="rotate(90 262.722 55.4)" fill="#70C217"/><circle cx="262.722" cy="107.08" r="3.524" transform="rotate(90 262.722 107.08)" fill="#70C217"/><circle cx="262.722" cy="158.759" r="3.524" transform="rotate(90 262.722 158.759)" fill="#70C217"/><circle cx="262.722" cy="210.438" r="3.524" transform="rotate(90 262.722 210.438)" fill="#70C217"/><circle cx="211.043" cy="3.722" r="3.524" transform="rotate(90 211.043 3.722)" fill="#70C217"/><circle cx="211.043" cy="55.401" r="3.524" transform="rotate(90 211.043 55.4)" fill="#70C217"/><circle cx="211.043" cy="107.08" r="3.524" transform="rotate(90 211.043 107.08)" fill="#70C217"/><circle cx="211.043" cy="158.759" r="3.524" transform="rotate(90 211.043 158.759)" fill="#70C217"/><circle cx="211.043" cy="210.438" r="3.524" transform="rotate(90 211.043 210.438)" fill="#70C217"/><circle cx="159.364" cy="3.722" r="3.524" transform="rotate(90 159.364 3.722)" fill="#70C217"/><circle cx="159.364" cy="55.401" r="3.524" transform="rotate(90 159.364 55.4)" fill="#70C217"/><circle cx="159.364" cy="107.08" r="3.524" transform="rotate(90 159.364 107.08)" fill="#70C217"/><circle cx="159.364" cy="158.759" r="3.524" transform="rotate(90 159.364 158.759)" fill="#70C217"/><circle cx="159.364" cy="210.438" r="3.524" transform="rotate(90 159.364 210.438)" fill="#70C217"/><circle cx="107.684" cy="3.722" r="3.524" transform="rotate(90 107.684 3.722)" fill="#70C217"/><circle cx="107.684" cy="55.401" r="3.524" transform="rotate(90 107.684 55.4)" fill="#70C217"/><circle cx="107.684" cy="107.08" r="3.524" transform="rotate(90 107.684 107.08)" fill="#70C217"/><circle cx="107.684" cy="158.759" r="3.524" transform="rotate(90 107.684 158.759)" fill="#70C217"/><circle cx="107.684" cy="210.438" r="3.524" transform="rotate(90 107.684 210.438)" fill="#70C217"/><circle cx="56.005" cy="3.722" r="3.524" transform="rotate(90 56.005 3.722)" fill="#70C217"/><circle cx="56.005" cy="55.401" r="3.524" transform="rotate(90 56.005 55.4)" fill="#70C217"/><circle cx="56.005" cy="107.08" r="3.524" transform="rotate(90 56.005 107.08)" fill="#70C217"/><circle cx="56.005" cy="158.759" r="3.524" transform="rotate(90 56.005 158.759)" fill="#70C217"/><circle cx="56.005" cy="210.438" r="3.524" transform="rotate(90 56.005 210.438)" fill="#70C217"/><circle cx="4.326" cy="3.722" r="3.524" transform="rotate(90 4.326 3.722)" fill="#70C217"/><circle cx="4.326" cy="55.401" r="3.524" transform="rotate(90 4.326 55.4)" fill="#70C217"/><circle cx="4.326" cy="107.08" r="3.524" transform="rotate(90 4.326 107.08)" fill="#70C217"/><circle cx="4.326" cy="158.759" r="3.524" transform="rotate(90 4.326 158.759)" fill="#70C217"/><circle cx="4.326" cy="210.438" r="3.524" transform="rotate(90 4.326 210.438)" fill="#70C217"/></svg>