<?xml version="1.0" encoding="UTF-8"?>
<!DOCTYPE svg PUBLIC "-//W3C//DTD SVG 1.1//EN" "http://www.w3.org/Graphics/SVG/1.1/DTD/svg11.dtd">
<!-- Creator: CorelDRAW 2020 (64-Bit) -->
<svg xmlns="http://www.w3.org/2000/svg" xml:space="preserve" width="952px" height="492px" version="1.1" style="shape-rendering:geometricPrecision; text-rendering:geometricPrecision; image-rendering:optimizeQuality; fill-rule:evenodd; clip-rule:evenodd"
viewBox="0 0 283.5 146.49"
 xmlns:xlink="http://www.w3.org/1999/xlink"
 xmlns:xodm="http://www.corel.com/coreldraw/odm/2003">
 <defs>
  <style type="text/css">
   <![CDATA[
    .fil0 {fill:#70C217;fill-rule:nonzero}
    .fil1 {fill:#EF4358;fill-rule:nonzero}
   ]]>
  </style>
 </defs>
 <g id="Слой_x0020_1">
  <metadata id="CorelCorpID_0Corel-Layer"/>
  <circle class="fil0" transform="matrix(7.98411E-15 0.301463 -0.301463 7.98411E-15 131.496 87.5011)" r="3.28"/>
  <circle class="fil0" transform="matrix(7.98411E-15 0.301463 -0.301463 7.98411E-15 131.496 102.002)" r="3.28"/>
  <circle class="fil0" transform="matrix(7.98411E-15 0.301463 -0.301463 7.98411E-15 131.496 116.503)" r="3.28"/>
  <circle class="fil0" transform="matrix(7.98411E-15 0.301463 -0.301463 7.98411E-15 131.496 131.003)" r="3.28"/>
  <circle class="fil0" transform="matrix(7.98411E-15 0.301463 -0.301463 7.98411E-15 131.496 145.504)" r="3.28"/>
  <circle class="fil0" transform="matrix(7.98411E-15 0.301463 -0.301463 7.98411E-15 116.995 87.5009)" r="3.28"/>
  <circle class="fil0" transform="matrix(7.98411E-15 0.301463 -0.301463 7.98411E-15 116.995 102.002)" r="3.28"/>
  <circle class="fil0" transform="matrix(7.98411E-15 0.301463 -0.301463 7.98411E-15 116.995 116.503)" r="3.28"/>
  <circle class="fil0" transform="matrix(7.98411E-15 0.301463 -0.301463 7.98411E-15 116.995 131.003)" r="3.28"/>
  <circle class="fil0" transform="matrix(7.98411E-15 0.301463 -0.301463 7.98411E-15 116.995 145.504)" r="3.28"/>
  <circle class="fil0" transform="matrix(7.98411E-15 0.301463 -0.301463 7.98411E-15 102.494 87.5009)" r="3.28"/>
  <circle class="fil0" transform="matrix(7.98411E-15 0.301463 -0.301463 7.98411E-15 102.494 102.002)" r="3.28"/>
  <circle class="fil0" transform="matrix(7.98411E-15 0.301463 -0.301463 7.98411E-15 102.494 116.503)" r="3.28"/>
  <circle class="fil0" transform="matrix(7.98411E-15 0.301463 -0.301463 7.98411E-15 102.494 131.003)" r="3.28"/>
  <circle class="fil0" transform="matrix(7.98411E-15 0.301463 -0.301463 7.98411E-15 102.494 145.504)" r="3.28"/>
  <circle class="fil0" transform="matrix(7.98411E-15 0.301463 -0.301463 7.98411E-15 87.9935 87.5009)" r="3.28"/>
  <circle class="fil0" transform="matrix(7.98411E-15 0.301463 -0.301463 7.98411E-15 87.9935 102.002)" r="3.28"/>
  <circle class="fil0" transform="matrix(7.98411E-15 0.301463 -0.301463 7.98411E-15 87.9935 116.503)" r="3.28"/>
  <circle class="fil0" transform="matrix(7.98411E-15 0.301463 -0.301463 7.98411E-15 87.9935 131.003)" r="3.28"/>
  <circle class="fil0" transform="matrix(7.98411E-15 0.301463 -0.301463 7.98411E-15 87.9935 145.504)" r="3.28"/>
  <circle class="fil0" transform="matrix(7.98411E-15 0.301463 -0.301463 7.98411E-15 73.4927 87.5009)" r="3.28"/>
  <circle class="fil0" transform="matrix(7.98411E-15 0.301463 -0.301463 7.98411E-15 73.4928 102.002)" r="3.28"/>
  <circle class="fil0" transform="matrix(7.98411E-15 0.301463 -0.301463 7.98411E-15 73.4927 116.503)" r="3.28"/>
  <circle class="fil0" transform="matrix(7.98411E-15 0.301463 -0.301463 7.98411E-15 73.4928 131.003)" r="3.28"/>
  <circle class="fil0" transform="matrix(7.98411E-15 0.301463 -0.301463 7.98411E-15 73.4928 145.504)" r="3.28"/>
  <circle class="fil0" transform="matrix(7.98411E-15 0.301463 -0.301463 7.98411E-15 58.992 87.5009)" r="3.28"/>
  <circle class="fil0" transform="matrix(7.98411E-15 0.301463 -0.301463 7.98411E-15 58.992 102.002)" r="3.28"/>
  <circle class="fil0" transform="matrix(7.98411E-15 0.301463 -0.301463 7.98411E-15 58.992 116.503)" r="3.28"/>
  <circle class="fil0" transform="matrix(7.98411E-15 0.301463 -0.301463 7.98411E-15 58.992 131.003)" r="3.28"/>
  <circle class="fil0" transform="matrix(7.98411E-15 0.301463 -0.301463 7.98411E-15 58.992 145.504)" r="3.28"/>
  <circle class="fil0" transform="matrix(7.98411E-15 0.301463 -0.301463 7.98411E-15 44.4912 87.5009)" r="3.28"/>
  <circle class="fil0" transform="matrix(7.98411E-15 0.301463 -0.301463 7.98411E-15 44.4913 102.002)" r="3.28"/>
  <circle class="fil0" transform="matrix(7.98411E-15 0.301463 -0.301463 7.98411E-15 44.4912 116.503)" r="3.28"/>
  <circle class="fil0" transform="matrix(7.98411E-15 0.301463 -0.301463 7.98411E-15 44.4912 131.003)" r="3.28"/>
  <circle class="fil0" transform="matrix(7.98411E-15 0.301463 -0.301463 7.98411E-15 44.4912 145.504)" r="3.28"/>
  <circle class="fil0" transform="matrix(7.98411E-15 0.301463 -0.301463 7.98411E-15 29.9902 87.5009)" r="3.28"/>
  <circle class="fil0" transform="matrix(7.98411E-15 0.301463 -0.301463 7.98411E-15 29.9903 102.002)" r="3.28"/>
  <circle class="fil0" transform="matrix(7.98411E-15 0.301463 -0.301463 7.98411E-15 29.9902 116.502)" r="3.28"/>
  <circle class="fil0" transform="matrix(7.98411E-15 0.301463 -0.301463 7.98411E-15 29.9902 131.003)" r="3.28"/>
  <circle class="fil0" transform="matrix(7.98411E-15 0.301463 -0.301463 7.98411E-15 29.9902 145.504)" r="3.28"/>
  <circle class="fil0" transform="matrix(7.98411E-15 0.301463 -0.301463 7.98411E-15 15.4895 87.5009)" r="3.28"/>
  <circle class="fil0" transform="matrix(7.98411E-15 0.301463 -0.301463 7.98411E-15 15.4896 102.002)" r="3.28"/>
  <circle class="fil0" transform="matrix(7.98411E-15 0.301463 -0.301463 7.98411E-15 15.4895 116.503)" r="3.28"/>
  <circle class="fil0" transform="matrix(7.98411E-15 0.301463 -0.301463 7.98411E-15 15.4895 131.003)" r="3.28"/>
  <circle class="fil0" transform="matrix(7.98411E-15 0.301463 -0.301463 7.98411E-15 15.4895 145.504)" r="3.28"/>
  <circle class="fil0" transform="matrix(7.98411E-15 0.301463 -0.301463 7.98411E-15 0.988725 87.5009)" r="3.28"/>
  <circle class="fil0" transform="matrix(7.98411E-15 0.301463 -0.301463 7.98411E-15 0.988789 102.002)" r="3.28"/>
  <circle class="fil0" transform="matrix(7.98411E-15 0.301463 -0.301463 7.98411E-15 0.988741 116.503)" r="3.28"/>
  <circle class="fil0" transform="matrix(7.98411E-15 0.301463 -0.301463 7.98411E-15 0.988743 131.003)" r="3.28"/>
  <circle class="fil0" transform="matrix(7.98411E-15 0.301463 -0.301463 7.98411E-15 0.988745 145.504)" r="3.28"/>
  <g id="Group_x0020_6.svg">
   <circle class="fil1" transform="matrix(7.62068E-15 0.287741 -0.287741 7.62068E-15 282.559 0.943918)" r="3.28"/>
   <circle class="fil1" transform="matrix(7.62068E-15 0.287741 -0.287741 7.62068E-15 282.559 14.7845)" r="3.28"/>
   <circle class="fil1" transform="matrix(7.62068E-15 0.287741 -0.287741 7.62068E-15 282.559 28.6253)" r="3.28"/>
   <circle class="fil1" transform="matrix(7.62068E-15 0.287741 -0.287741 7.62068E-15 282.559 42.466)" r="3.28"/>
   <circle class="fil1" transform="matrix(7.62068E-15 0.287741 -0.287741 7.62068E-15 282.559 56.3066)" r="3.28"/>
   <circle class="fil1" transform="matrix(7.62068E-15 0.287741 -0.287741 7.62068E-15 268.718 0.943753)" r="3.28"/>
   <circle class="fil1" transform="matrix(7.62068E-15 0.287741 -0.287741 7.62068E-15 268.718 14.7845)" r="3.28"/>
   <circle class="fil1" transform="matrix(7.62068E-15 0.287741 -0.287741 7.62068E-15 268.718 28.6252)" r="3.28"/>
   <circle class="fil1" transform="matrix(7.62068E-15 0.287741 -0.287741 7.62068E-15 268.718 42.4659)" r="3.28"/>
   <circle class="fil1" transform="matrix(7.62068E-15 0.287741 -0.287741 7.62068E-15 268.718 56.3066)" r="3.28"/>
   <circle class="fil1" transform="matrix(7.62068E-15 0.287741 -0.287741 7.62068E-15 254.877 0.943755)" r="3.28"/>
   <circle class="fil1" transform="matrix(7.62068E-15 0.287741 -0.287741 7.62068E-15 254.877 14.7845)" r="3.28"/>
   <circle class="fil1" transform="matrix(7.62068E-15 0.287741 -0.287741 7.62068E-15 254.877 28.6252)" r="3.28"/>
   <circle class="fil1" transform="matrix(7.62068E-15 0.287741 -0.287741 7.62068E-15 254.877 42.4659)" r="3.28"/>
   <circle class="fil1" transform="matrix(7.62068E-15 0.287741 -0.287741 7.62068E-15 254.877 56.3066)" r="3.28"/>
   <circle class="fil1" transform="matrix(7.62068E-15 0.287741 -0.287741 7.62068E-15 241.036 0.943757)" r="3.28"/>
   <circle class="fil1" transform="matrix(7.62068E-15 0.287741 -0.287741 7.62068E-15 241.036 14.7845)" r="3.28"/>
   <circle class="fil1" transform="matrix(7.62068E-15 0.287741 -0.287741 7.62068E-15 241.036 28.6252)" r="3.28"/>
   <circle class="fil1" transform="matrix(7.62068E-15 0.287741 -0.287741 7.62068E-15 241.036 42.4659)" r="3.28"/>
   <circle class="fil1" transform="matrix(7.62068E-15 0.287741 -0.287741 7.62068E-15 241.036 56.3066)" r="3.28"/>
   <circle class="fil1" transform="matrix(7.62068E-15 0.287741 -0.287741 7.62068E-15 227.196 0.94376)" r="3.28"/>
   <circle class="fil1" transform="matrix(7.62068E-15 0.287741 -0.287741 7.62068E-15 227.196 14.7845)" r="3.28"/>
   <circle class="fil1" transform="matrix(7.62068E-15 0.287741 -0.287741 7.62068E-15 227.196 28.6252)" r="3.28"/>
   <circle class="fil1" transform="matrix(7.62068E-15 0.287741 -0.287741 7.62068E-15 227.196 42.4659)" r="3.28"/>
   <circle class="fil1" transform="matrix(7.62068E-15 0.287741 -0.287741 7.62068E-15 227.196 56.3066)" r="3.28"/>
   <circle class="fil1" transform="matrix(7.62068E-15 0.287741 -0.287741 7.62068E-15 213.355 0.943762)" r="3.28"/>
   <circle class="fil1" transform="matrix(7.62068E-15 0.287741 -0.287741 7.62068E-15 213.355 14.7845)" r="3.28"/>
   <circle class="fil1" transform="matrix(7.62068E-15 0.287741 -0.287741 7.62068E-15 213.355 28.6252)" r="3.28"/>
   <circle class="fil1" transform="matrix(7.62068E-15 0.287741 -0.287741 7.62068E-15 213.355 42.4659)" r="3.28"/>
   <circle class="fil1" transform="matrix(7.62068E-15 0.287741 -0.287741 7.62068E-15 213.355 56.3066)" r="3.28"/>
   <circle class="fil1" transform="matrix(7.62068E-15 0.287741 -0.287741 7.62068E-15 199.514 0.943728)" r="3.28"/>
   <circle class="fil1" transform="matrix(7.62068E-15 0.287741 -0.287741 7.62068E-15 199.514 14.7845)" r="3.28"/>
   <circle class="fil1" transform="matrix(7.62068E-15 0.287741 -0.287741 7.62068E-15 199.514 28.6252)" r="3.28"/>
   <circle class="fil1" transform="matrix(7.62068E-15 0.287741 -0.287741 7.62068E-15 199.514 42.4659)" r="3.28"/>
   <circle class="fil1" transform="matrix(7.62068E-15 0.287741 -0.287741 7.62068E-15 199.514 56.3066)" r="3.28"/>
   <circle class="fil1" transform="matrix(7.62068E-15 0.287741 -0.287741 7.62068E-15 185.673 0.94373)" r="3.28"/>
   <circle class="fil1" transform="matrix(7.62068E-15 0.287741 -0.287741 7.62068E-15 185.673 14.7845)" r="3.28"/>
   <circle class="fil1" transform="matrix(7.62068E-15 0.287741 -0.287741 7.62068E-15 185.673 28.6252)" r="3.28"/>
   <circle class="fil1" transform="matrix(7.62068E-15 0.287741 -0.287741 7.62068E-15 185.673 42.4659)" r="3.28"/>
   <circle class="fil1" transform="matrix(7.62068E-15 0.287741 -0.287741 7.62068E-15 185.673 56.3066)" r="3.28"/>
   <circle class="fil1" transform="matrix(7.62068E-15 0.287741 -0.287741 7.62068E-15 171.833 0.943807)" r="3.28"/>
   <circle class="fil1" transform="matrix(7.62068E-15 0.287741 -0.287741 7.62068E-15 171.833 14.7845)" r="3.28"/>
   <circle class="fil1" transform="matrix(7.62068E-15 0.287741 -0.287741 7.62068E-15 171.833 28.6253)" r="3.28"/>
   <circle class="fil1" transform="matrix(7.62068E-15 0.287741 -0.287741 7.62068E-15 171.833 42.466)" r="3.28"/>
   <circle class="fil1" transform="matrix(7.62068E-15 0.287741 -0.287741 7.62068E-15 171.833 56.3067)" r="3.28"/>
   <circle class="fil1" transform="matrix(7.62068E-15 0.287741 -0.287741 7.62068E-15 157.992 0.943769)" r="3.28"/>
   <circle class="fil1" transform="matrix(7.62068E-15 0.287741 -0.287741 7.62068E-15 157.992 14.7845)" r="3.28"/>
   <circle class="fil1" transform="matrix(7.62068E-15 0.287741 -0.287741 7.62068E-15 157.992 28.6252)" r="3.28"/>
   <circle class="fil1" transform="matrix(7.62068E-15 0.287741 -0.287741 7.62068E-15 157.992 42.4659)" r="3.28"/>
   <circle class="fil1" transform="matrix(7.62068E-15 0.287741 -0.287741 7.62068E-15 157.992 56.3066)" r="3.28"/>
  </g>
 </g>
</svg>
