<?xml version="1.0" encoding="UTF-8"?>
<!DOCTYPE svg PUBLIC "-//W3C//DTD SVG 1.1//EN" "http://www.w3.org/Graphics/SVG/1.1/DTD/svg11.dtd">
<!-- Creator: CorelDRAW 2020 (64-Bit) -->
<svg xmlns="http://www.w3.org/2000/svg" xml:space="preserve" width="51px" height="25px" version="1.1" style="shape-rendering:geometricPrecision; text-rendering:geometricPrecision; image-rendering:optimizeQuality; fill-rule:evenodd; clip-rule:evenodd"
viewBox="0 0 51 25"
 xmlns:xlink="http://www.w3.org/1999/xlink"
 xmlns:xodm="http://www.corel.com/coreldraw/odm/2003">
 <defs>
  <style type="text/css">
   <![CDATA[
    .fil0 {fill:black}
   ]]>
  </style>
 </defs>
 <g id="Слой_x0020_1">
  <metadata id="CorelCorpID_0Corel-Layer"/>
  <path class="fil0" d="M13 0.14c0.21,0.09 0.41,0.22 0.57,0.38 0.16,0.17 0.29,0.36 0.38,0.58 0.09,0.22 0.14,0.45 0.14,0.69 0,0.23 -0.05,0.47 -0.14,0.68 -0.09,0.22 -0.22,0.42 -0.38,0.58l-7.56 7.66 43.23 0c0.47,0 0.92,0.19 1.24,0.53 0.33,0.33 0.52,0.79 0.52,1.26 0,0.47 -0.19,0.93 -0.52,1.26 -0.32,0.34 -0.77,0.53 -1.24,0.53l-43.23 0 7.56 7.66c0.33,0.33 0.52,0.79 0.52,1.26 0,0.47 -0.19,0.93 -0.52,1.26 -0.33,0.34 -0.78,0.53 -1.25,0.53 -0.46,0 -0.91,-0.19 -1.24,-0.53l-10.56 -10.71c-0.17,-0.16 -0.3,-0.36 -0.39,-0.58 -0.09,-0.21 -0.13,-0.44 -0.13,-0.68 0,-0.24 0.04,-0.47 0.13,-0.69 0.09,-0.21 0.22,-0.41 0.39,-0.57l10.56 -10.72c0.16,-0.16 0.36,-0.29 0.57,-0.38 0.21,-0.1 0.44,-0.14 0.67,-0.14 0.24,0 0.46,0.04 0.68,0.14l0 0z"/>
 </g>
</svg>
