<?xml version="1.0" encoding="UTF-8"?>
<!DOCTYPE svg PUBLIC "-//W3C//DTD SVG 1.1//EN" "http://www.w3.org/Graphics/SVG/1.1/DTD/svg11.dtd">
<!-- Creator: CorelDRAW 2020 (64-Bit) -->
<svg xmlns="http://www.w3.org/2000/svg" xml:space="preserve" width="2480px" height="3508px" version="1.1" style="shape-rendering:geometricPrecision; text-rendering:geometricPrecision; image-rendering:optimizeQuality; fill-rule:evenodd; clip-rule:evenodd"
viewBox="0 0 2480 3507.43"
 xmlns:xlink="http://www.w3.org/1999/xlink"
 xmlns:xodm="http://www.corel.com/coreldraw/odm/2003">
 <defs>
  <style type="text/css">
   <![CDATA[
    .fil0 {fill:black;fill-opacity:0.301961}
   ]]>
  </style>
 </defs>
 <g id="Слой_x0020_1">
  <metadata id="CorelCorpID_0Corel-Layer"/>
  <path class="fil0" d="M1247.6 1746.3c-0.13,0.05 -0.25,0.13 -0.35,0.23 -0.1,0.1 -0.18,0.22 -0.23,0.35 -0.05,0.13 -0.08,0.27 -0.08,0.41 0,0.14 0.03,0.28 0.08,0.41 0.05,0.13 0.13,0.25 0.23,0.35l4.59 4.59 -26.27 0c-0.28,0 -0.55,0.12 -0.76,0.32 -0.19,0.2 -0.31,0.47 -0.31,0.75 0,0.29 0.12,0.56 0.31,0.76 0.21,0.2 0.48,0.32 0.76,0.32l26.27 0 -4.59 4.59c-0.2,0.2 -0.31,0.48 -0.31,0.76 0,0.29 0.11,0.56 0.31,0.76 0.2,0.2 0.47,0.31 0.76,0.31 0.28,0 0.56,-0.11 0.76,-0.31l6.42 -6.43c0.09,-0.1 0.17,-0.21 0.23,-0.34 0.05,-0.13 0.08,-0.27 0.08,-0.42 0,-0.14 -0.03,-0.28 -0.08,-0.41 -0.06,-0.13 -0.14,-0.24 -0.23,-0.34l-6.42 -6.43c-0.1,-0.1 -0.22,-0.18 -0.35,-0.23 -0.13,-0.06 -0.27,-0.08 -0.41,-0.08 -0.14,0 -0.28,0.02 -0.41,0.08z"/>
 </g>
</svg>
