<?xml version="1.0" encoding="UTF-8"?>
<!DOCTYPE svg PUBLIC "-//W3C//DTD SVG 1.1//EN" "http://www.w3.org/Graphics/SVG/1.1/DTD/svg11.dtd">
<!-- Creator: CorelDRAW 2020 (64-Bit) -->
<svg xmlns="http://www.w3.org/2000/svg" xml:space="preserve" width="162px" height="78px" version="1.1" style="shape-rendering:geometricPrecision; text-rendering:geometricPrecision; image-rendering:optimizeQuality; fill-rule:evenodd; clip-rule:evenodd"
viewBox="0 0 161.16 77.89"
 xmlns:xlink="http://www.w3.org/1999/xlink"
 xmlns:xodm="http://www.corel.com/coreldraw/odm/2003">
 <defs>
  <style type="text/css">
   <![CDATA[
    .fil0 {fill:black}
   ]]>
  </style>
 </defs>
 <g id="Слой_x0020_1">
  <metadata id="CorelCorpID_0Corel-Layer"/>
  <path class="fil0" d="M41.08 0.43c0.67,0.28 1.28,0.69 1.8,1.2 0.52,0.52 0.93,1.13 1.21,1.81 0.28,0.68 0.43,1.4 0.43,2.13 0,0.73 -0.15,1.46 -0.43,2.13 -0.28,0.68 -0.69,1.29 -1.21,1.81l-23.88 23.87 136.6 0c1.47,0 2.89,0.59 3.93,1.63 1.04,1.04 1.63,2.46 1.63,3.93 0,1.48 -0.59,2.89 -1.63,3.94 -1.04,1.04 -2.46,1.63 -3.93,1.63l-136.6 0 23.88 23.87c1.05,1.04 1.63,2.46 1.63,3.94 0,1.47 -0.58,2.89 -1.63,3.93 -1.04,1.05 -2.46,1.64 -3.94,1.64 -1.47,0 -2.89,-0.59 -3.93,-1.64l-33.38 -33.37c-0.51,-0.51 -0.92,-1.13 -1.21,-1.8 -0.28,-0.68 -0.42,-1.4 -0.42,-2.14 0,-0.73 0.14,-1.45 0.42,-2.13 0.29,-0.67 0.7,-1.29 1.21,-1.8l33.38 -33.38c0.51,-0.51 1.13,-0.92 1.8,-1.2 0.68,-0.29 1.4,-0.43 2.13,-0.43 0.74,0 1.46,0.14 2.14,0.43z"/>
 </g>
</svg>
